<?xml version="1.0" encoding="utf-8"?>
<!-- Generator: Adobe Illustrator 27.3.1, SVG Export Plug-In . SVG Version: 6.00 Build 0)  -->
<svg version="1.1" id="Layer_1" xmlns="http://www.w3.org/2000/svg" xmlns:xlink="http://www.w3.org/1999/xlink" x="0px" y="0px"
	 viewBox="0 0 800 800" style="enable-background:new 0 0 800 800;" xml:space="preserve">
<style type="text/css">
	.st0{fill:#FFFFFF;}
	.st1{fill:#F35045;}
</style>
<rect class="st0" width="800" height="800"/>
<g>
	<path class="st1" d="M501.4,650c6.2,9,10.1,8.3,14.9,6.2c4.9-2.1,254.9-86.5,262.5-89.2c7.6-2.8,5.2-5.2,2.8-9
		c-2.4-3.8-85.8-117-89.9-123.6c-4.2-6.6-6.2-5.2-12.8-3.1l-265,69C413.8,500.2,495.1,641,501.4,650z M800,534.7V402.2
		c-29.8,7.9-67.5,18-82.4,21.9C740,454.2,775.2,501.3,800,534.7z M717.3,261c-4.1,0.9-94.5,17.3-100.1,18c-5.6,0.7-3.7,3.9-1.5,7.1
		l79.6,109.2c0,0,97.3-24.1,103.3-25.4c0.5-0.1,1-0.2,1.4-0.3V355c-17.7-22.4-65.9-83.5-70-89.2C724.9,259,721.4,260.1,717.3,261
		L717.3,261z"/>
	<path class="st1" d="M148.3,89.5c19.6-0.9,21.4,3.6,30,16.3l216.2,361.4l271.8-65.1c-15.1-21.3-83.4-118.3-90-127.5
		c-7.4-10.4,0.2-15.2,12.3-17.3c12.1-2,116.1-19.5,125-20.8c8.9-1.3,16-4.5,30.5,13c7.4,8.9,32.5,40.2,56.1,69.5V150
		c0-41.3-14.7-76.7-44-106C726.7,14.7,691.3,0,650,0H150C108.7,0,73.3,14.7,44,44C27.2,60.8,15.2,79.6,8,100.4
		C57,96.4,134.6,90.1,148.3,89.5L148.3,89.5z"/>
	<path class="st1" d="M525.9,698.6c-22.9,6.9-33.2,10.4-48.1-10.4c-11.2-15.6-71.6-124.5-101.3-178.2
		c-56.1,14.7-158.8,41.5-188.4,48.6c-28.9,6.9-41.2-10.4-46-21.1C138.8,530,54,347.4,0,230.2V650c0,41.3,14.7,76.6,44,106
		c29.3,29.3,64.7,44,106,44h500c41.3,0,76.7-14.7,106-44c29.3-29.3,44-64.7,44-106v-49.3C738.6,623.1,541.3,694,525.9,698.6z"/>
	<path class="st1" d="M188.8,516.5c8.1-1.9,160.4-38.3,163.6-39c3.2-0.7,5.3-2.6,1.9-8.6c-3.5-6-202.9-350.3-202.9-350.3
		c-1.8-3.2-1.3-4.2-6.3-3.9C140.6,115,27.7,125,1.6,127.2c-0.8,5.5-1.3,11.1-1.4,16.7c26.5,54.3,178.7,368.2,179.6,370.8
		C180.7,517.5,180.7,518.4,188.8,516.5L188.8,516.5z"/>
</g>
</svg>
