<?xml version="1.0" encoding="utf-8"?>
<!-- Generator: Adobe Illustrator 24.2.3, SVG Export Plug-In . SVG Version: 6.00 Build 0)  -->
<svg version="1.1" id="Layer_1" xmlns="http://www.w3.org/2000/svg" xmlns:xlink="http://www.w3.org/1999/xlink" x="0px" y="0px"
	 viewBox="0 0 2500 2500" style="enable-background:new 0 0 2500 2500;" xml:space="preserve">
<style type="text/css">
	.st0{fill:#FFFFFF;}
	.st1{fill:#00546B;}
</style>
<rect class="st0" width="2500" height="2500"/>
<g>
	<path class="st1" d="M1914.2,1669.4c-85.9-2.1-152.5,6.5-208.3,30.1c-16.1,6.4-41.9,6.4-44,26.8c8.6,8.6,9.7,22.6,17.2,34.4
		c12.9,21.5,35.4,50.5,55.8,65.5c22.5,17.2,45.1,34.4,68.7,49.4c41.9,25.8,89.1,40.8,129.9,66.6c23.6,15,47.2,34.4,70.9,50.5
		c11.8,8.6,19.3,22.6,34.4,27.9v-3.2c-7.5-9.7-9.7-23.6-17.2-34.4c-10.7-10.7-21.5-20.4-32.2-31.1c-31.1-41.9-69.8-78.4-111.7-108.5
		c-34.4-23.6-109.5-55.8-123.5-95.6c0,0-1.1-1.1-2.1-2.1c23.6-2.1,51.5-10.7,74.1-17.2c36.5-9.7,69.8-7.5,107.4-17.2
		c17.2-4.3,34.4-9.7,51.5-15v-9.7c-19.3-19.3-33.3-45.1-53.7-63.4c-54.8-47.3-114.9-93.4-177.2-132.1
		c-33.3-21.5-76.3-35.4-111.7-53.7c-12.9-6.5-34.4-9.7-41.9-20.4c-19.3-23.6-30.1-54.8-44-82.7c-31.1-59.1-61.2-124.6-88.1-186.8
		c-19.3-41.9-31.1-83.8-54.8-122.4c-110.6-182.6-230.9-293.2-415.6-401.6c-39.7-22.5-87-32.2-137.5-44c-26.8-1.1-53.7-3.2-80.5-4.3
		c-17.2-7.5-34.4-27.9-49.4-37.6c-61.2-38.7-219.1-122.4-264.2-11.8c-29,69.8,43,138.5,67.6,174c18.3,24.7,41.9,52.6,54.8,80.5
		c7.5,18.2,9.7,37.6,17.2,56.9c17.2,47.2,33.3,99.9,55.8,143.9c11.8,22.5,24.7,46.2,39.7,66.6c8.6,11.8,23.6,17.2,26.8,36.5
		c-15,21.5-16.1,53.7-24.7,80.5c-38.7,121.3-23.6,271.7,31.1,360.8c17.2,26.8,58,85.9,112.8,63.4c48.3-19.3,37.6-80.5,51.5-134.2
		c3.2-12.9,1.1-21.5,7.5-30.1v2.2c15,30.1,30.1,59.1,44,89.1c33.3,52.6,91.3,107.4,139.6,143.9c25.8,19.3,46.2,52.6,78.4,64.4v-3.2
		h-2.2c-6.4-9.7-16.1-14-24.7-21.5c-19.3-19.3-40.8-42.9-55.8-64.4c-45.1-60.1-84.8-126.7-120.3-195.4
		c-17.2-33.3-32.2-69.8-46.2-103.1c-6.5-12.9-6.5-32.2-17.2-38.7c-16.1,23.6-39.7,44-51.5,73c-20.4,46.2-22.5,103.1-30.1,162.1
		c-4.3,1.1-2.2,0-4.3,2.2c-34.4-8.6-46.2-44-59.1-74.1c-32.2-76.2-37.6-198.7-9.7-286.7c7.5-22.6,39.7-93.4,26.8-114.9
		c-6.4-20.4-27.9-32.2-39.7-48.3c-14-20.4-29-46.2-38.7-68.7c-25.8-60.1-38.7-126.7-66.6-186.9c-12.9-27.9-35.4-56.9-53.7-82.7
		c-20.4-29-43-49.4-59.1-83.8c-5.4-11.8-12.9-31.1-4.3-44c2.1-8.6,6.4-11.8,15-14c14-11.8,53.7,3.2,67.6,9.7
		c39.7,16.1,73,31.1,106.3,53.7c15,10.7,31.1,31.1,50.5,36.5h22.6c34.4,7.5,73,2.1,105.2,11.8c56.9,18.3,108.5,45.1,154.6,74.1
		c140.7,89.1,256.6,215.8,335,367.3c12.9,24.7,18.3,47.3,30.1,73c22.6,52.6,50.5,106.3,73,157.9c22.6,50.5,44,102,76.2,143.9
		c16.1,22.5,80.5,34.4,109.5,46.2c21.5,9.7,54.8,18.3,74.1,30.1c36.5,22.5,73,48.3,107.4,73
		C1857.3,1621.1,1910.9,1647.9,1914.2,1669.4L1914.2,1669.4z"/>
	<path class="st1" d="M818.8,736.2c-18.3,0-31.1,2.2-44,5.4v2.1h2.1c8.6,17.2,23.6,29,34.4,44c8.6,17.2,16.1,34.4,24.7,51.6
		c1.1-1.1,2.1-2.1,2.1-2.1c15-10.7,22.6-27.9,22.6-53.7c-6.4-7.5-7.5-15-12.9-22.5C841.4,750.2,827.4,744.8,818.8,736.2L818.8,736.2
		z"/>
</g>
</svg>
